<svg width="1512" height="982" viewBox="0 0 1512 982" fill="none" xmlns="http://www.w3.org/2000/svg">
<rect width="1512" height="982" fill="white"/>
<g clip-path="url(#clip0_7_107)">
<path opacity="0.1" d="M793.429 202.802C705.58 217.229 617.855 211.044 533.465 202.049C449.076 193.053 364.896 181.306 277.01 184.846C220.476 187.119 157.516 198.005 118.041 229.646C80.0438 260.079 74.1232 301.146 74.0493 338.218C73.9509 366.102 76.4373 394.956 96.7715 417.17C110.902 432.578 132.652 443.619 149.035 457.843C206.037 507.248 188.706 585.04 151.3 651.181C133.747 682.211 112.281 712.728 100.329 744.488C88.3769 776.249 86.789 810.282 108.182 836.181C129.378 861.864 170.379 876.339 213.127 883.839C299.954 899.079 396.689 889.617 490.286 876.793C697.432 848.311 902.436 803.906 1107 759.609C1182.68 743.208 1258.7 726.736 1331.62 703.098C1372.12 689.939 1413.35 673.562 1439.51 648.07C1472.74 615.772 1473.58 571.594 1441.55 545.193C1387.81 500.932 1266.18 510.753 1224.61 460.151C1201.74 432.291 1211.7 394.453 1229.9 361.03C1268.93 289.351 1344.37 218.533 1334.6 147.069C1327.85 98.0226 1276.39 57.4339 1207.41 46.859C1135.11 35.7817 1042.25 56.7879 1000.62 106.145C957.826 156.998 870.999 190.026 793.429 202.802Z" fill="#0B6BB1"/>
<path d="M865.989 473.741H517.119V552.251H865.989V473.741Z" fill="#565661"/>
<path opacity="0.1" d="M865.989 473.741H517.119V552.251H865.989V473.741Z" fill="black"/>
<path d="M558.858 554.835L561.308 764.43L527.754 846.756L525.157 554.835H558.858Z" fill="#BCBEC9"/>
<path d="M520.799 488.814L860.462 490.799V549.272H520.799V488.814Z" fill="#565661"/>
<path d="M831.401 554.835L860.463 558.818V843.574L831.401 756.475V554.835Z" fill="#BCBEC9"/>
<path d="M1035.2 476.887H871.503V814.947H1035.2V476.887Z" fill="#EFEFF0"/>
<path d="M1022.1 486.278H884.6V746.139H1022.1V486.278Z" fill="#565661"/>
<path opacity="0.1" d="M1022.1 486.278H884.6V746.139H1022.1V486.278Z" fill="black"/>
<path d="M1022.1 491.601H884.6V549.272H1022.1V491.601Z" fill="#565661"/>
<path d="M1022.1 554.835H884.6V677.331H1022.1V554.835Z" fill="#565661"/>
<path d="M1022.1 684.891H884.6V807.387H1022.1V684.891Z" fill="#565661"/>
<path opacity="0.1" d="M1022.1 684.891H884.6V807.387H1022.1V684.891Z" fill="black"/>
<path d="M890.336 836.958C895.231 836.958 899.198 832.031 899.198 825.953C899.198 819.875 895.231 814.947 890.336 814.947C885.441 814.947 881.474 819.875 881.474 825.953C881.474 832.031 885.441 836.958 890.336 836.958Z" fill="#565661"/>
<path d="M1013.24 837.485C1018.13 837.485 1022.1 832.557 1022.1 826.479C1022.1 820.401 1018.13 815.474 1013.24 815.474C1008.35 815.474 1004.38 820.401 1004.38 826.479C1004.38 832.557 1008.35 837.485 1013.24 837.485Z" fill="#565661"/>
<path d="M515.888 846.756H527.754L524.492 479.818H506.472L515.888 846.756Z" fill="#EFEFF0"/>
<path d="M860.462 476.887V843.574H871.503V479.818L860.462 476.887Z" fill="#EFEFF0"/>
<path d="M525.071 545.683V558.818H860.462V549.272L525.071 545.683Z" fill="#EFEFF0"/>
<path d="M547.805 452.232H973.003L1034.79 472.114V483.646L504.429 479.674V467.939L547.805 452.232Z" fill="white"/>
<path d="M504.429 467.939L1034.79 472.114V483.646L504.429 479.674V467.939Z" fill="#BCBEC9"/>
<path d="M552.47 604.694L550.008 604.336C550.008 604.228 550.008 604.132 550.008 604.036C549.935 603.474 549.848 602.924 549.762 602.362C550.772 603.139 551.732 603.917 552.618 604.694H552.47Z" fill="url(#paint0_linear_7_107)"/>
<path d="M498.976 789.407C500.576 789.048 502.201 788.749 503.826 788.534C514.984 786.99 526.365 788.618 536.592 793.223C535.558 800.616 534.536 808.26 536.727 815.402C538.253 820.426 541.318 824.972 541.971 830.211C543.615 830.486 545.147 831.2 546.397 832.273C547.647 833.347 548.565 834.737 549.048 836.288C549.521 837.661 549.758 839.1 549.75 840.547C549.736 842.338 549.505 844.12 549.061 845.858C548.911 847.247 548.21 848.523 547.107 849.417C546.003 850.311 544.584 850.751 543.152 850.643C533.625 851.696 524.283 848.047 515.421 844.471L498.188 837.509C496.169 836.695 494.138 835.87 492.206 834.865C488.541 832.94 485.286 830.354 482.617 827.245C482.053 826.69 481.657 825.994 481.473 825.235C481.153 823.13 483.688 821.874 485.301 820.45C485.773 820.016 486.187 819.526 486.532 818.991C488.439 816.191 488.624 812.327 489.769 809.026C492.477 801.19 500.847 796.142 503.801 788.498C503.961 788.079 504.109 787.661 504.232 787.23" fill="#A26565"/>
<path opacity="0.1" d="M549.75 840.547C549.736 842.338 549.505 844.12 549.061 845.858C548.911 847.247 548.21 848.523 547.107 849.417C546.003 850.311 544.584 850.751 543.152 850.643C533.625 851.696 524.283 848.048 515.421 844.471L498.188 837.509C496.169 836.695 494.138 835.87 492.206 834.865C488.541 832.94 485.286 830.354 482.617 827.245C482.053 826.69 481.657 825.994 481.473 825.235C481.153 823.13 483.688 821.874 485.301 820.45C485.773 820.016 486.187 819.526 486.532 818.991C491.283 819.983 497.179 822.89 500.81 824.015C504.447 824.977 507.939 826.397 511.199 828.238C515.728 831.061 518.99 835.415 522.83 839.004C526.671 842.593 531.631 845.858 536.986 845.416C539.817 845.001 542.545 844.085 545.036 842.712L549.75 840.547Z" fill="black"/>
<path d="M529.576 670.548C529.896 671.633 529.867 672.788 529.493 673.857C529.119 674.926 528.418 675.858 527.483 676.529C525.871 677.498 523.791 677.367 522.19 678.419C520.209 679.771 519.926 682.451 519.581 684.771C518.35 692.75 514.276 699.988 510.792 707.321C507.309 714.654 504.367 722.657 505.647 730.624C506.521 736.031 509.254 741.797 506.694 746.665C506.066 747.862 505.13 748.926 504.416 750.087C500.908 755.781 502.902 762.994 502.767 769.621C502.818 770.357 502.652 771.092 502.287 771.739C501.749 772.35 501.087 772.847 500.342 773.198C499.092 774.091 498.066 775.246 497.339 776.578C496.613 777.91 496.204 779.384 496.145 780.89C496.041 783.902 496.415 786.912 497.253 789.814C497.388 790.985 497.921 792.08 498.767 792.924C499.747 793.554 500.904 793.872 502.078 793.833C509.811 794.442 517.396 796.235 524.554 799.145C529.219 801.035 533.748 803.403 538.709 804.313C539.189 804.457 539.694 804.506 540.193 804.454C540.693 804.403 541.176 804.253 541.614 804.014C542.237 803.466 542.668 802.742 542.845 801.944C544.753 795.843 546.685 789.551 546.033 783.211C545.75 780.483 544.999 777.816 544.802 775.088C543.94 764.322 551.436 754.608 553.812 743.986C554.883 739.201 554.883 734.248 555.646 729.415C557.714 716.173 565.222 704.294 568.115 691.195C568.517 688.753 569.143 686.351 569.986 684.018C572.14 678.946 577.125 674.831 577.236 669.34C577.304 668.132 576.977 666.934 576.3 665.918C575.14 664.681 573.598 663.841 571.906 663.526C565.219 661.738 558.412 660.403 551.535 659.53C548.383 658.929 545.166 658.712 541.958 658.885C537.793 659.36 533.79 660.734 530.24 662.904C525.489 665.751 528.542 666.433 529.576 670.548Z" fill="#454B69"/>
<path opacity="0.05" d="M529.576 670.548C529.896 671.633 529.867 672.788 529.493 673.857C529.119 674.926 528.418 675.858 527.483 676.529C525.871 677.498 523.791 677.367 522.19 678.419C520.209 679.771 519.926 682.451 519.581 684.771C518.35 692.75 514.276 699.988 510.792 707.321C507.309 714.654 504.367 722.657 505.647 730.624C506.521 736.031 509.254 741.797 506.694 746.665C506.066 747.862 505.13 748.926 504.416 750.087C500.908 755.781 502.902 762.994 502.767 769.621C502.818 770.357 502.652 771.092 502.287 771.739C501.749 772.35 501.087 772.847 500.342 773.198C499.092 774.091 498.066 775.246 497.339 776.578C496.613 777.91 496.204 779.384 496.145 780.89C496.041 783.902 496.415 786.912 497.253 789.814C497.388 790.985 497.921 792.08 498.767 792.924C499.747 793.554 500.904 793.872 502.078 793.833C509.811 794.442 517.396 796.235 524.554 799.145C529.219 801.035 533.748 803.403 538.709 804.313C539.189 804.457 539.694 804.506 540.193 804.454C540.693 804.403 541.176 804.253 541.614 804.014C542.237 803.466 542.668 802.742 542.845 801.944C544.753 795.843 546.685 789.551 546.033 783.211C545.75 780.483 544.999 777.816 544.802 775.088C543.94 764.322 551.436 754.608 553.812 743.986C554.883 739.201 554.883 734.248 555.646 729.415C557.714 716.173 565.222 704.294 568.115 691.195C568.517 688.753 569.143 686.351 569.986 684.018C572.14 678.946 577.125 674.831 577.236 669.34C577.304 668.132 576.977 666.934 576.3 665.918C575.14 664.681 573.598 663.841 571.906 663.526C565.219 661.738 558.412 660.403 551.535 659.53C548.383 658.929 545.166 658.712 541.958 658.885C537.793 659.36 533.79 660.734 530.24 662.904C525.489 665.751 528.542 666.433 529.576 670.548Z" fill="black"/>
<path d="M505.487 850.835H494.988L488.119 713.697L487.639 705.897L496.563 702.847L497.166 711.137L505.487 850.835Z" fill="#565661"/>
<path opacity="0.1" d="M497.166 711.137L488.119 713.697L487.639 705.897L496.563 702.847L497.166 711.137Z" fill="black"/>
<path d="M637.229 879.844L619.911 881.877L540.124 705.897L518.609 704.366L480.82 715.084L473.472 924.608H456.153L462.973 707.428L421.504 708.457L347.503 887.488H331.76L409.589 678.252L412.592 670.189L528.579 666.325L557.492 682.08L557.862 682.989L637.229 879.844Z" fill="#565661"/>
<path opacity="0.1" d="M557.861 682.989C532.936 690.286 507.063 698.253 507.063 698.253C507.063 698.253 483.467 706.256 473.472 698.253C472.212 697.297 470.803 696.542 469.299 696.016C470.596 696.916 471.996 697.667 473.472 698.253L409.589 678.24L412.58 670.189L528.579 666.325L557.492 682.08L557.861 682.989Z" fill="black"/>
<path d="M439.881 648.262L487.11 638.058C487.11 638.058 599.958 658.466 608.352 666.624C608.352 666.624 518.079 684.472 508.109 690.549C498.139 696.626 438.822 703.349 439.881 648.262Z" fill="white"/>
<path d="M419.571 533.553C415.879 544.93 405.798 555.182 393.526 555.672C392.633 555.774 391.729 555.615 390.929 555.217C389.39 554.284 389.353 552.095 389.981 550.432C390.609 548.77 391.704 547.274 391.876 545.528C391.913 545.171 391.888 544.812 391.802 544.463C391.482 543.04 390.288 541.772 388.885 542.071C389.841 541.328 390.477 540.265 390.671 539.091C390.864 537.917 390.601 536.714 389.932 535.719C389.374 535.107 388.872 534.451 388.43 533.757C387.408 531.723 388.996 529.438 389.661 527.261C391.027 522.476 387.556 517.691 387.273 512.703C387.027 508.241 389.353 504.042 389.932 499.616C390.855 492.438 387.187 485.56 386.756 478.394C386.46 473.394 387.728 468.441 389.144 463.621C390.375 459.314 391.766 454.96 391.852 450.462C391.852 447.196 391.273 443.966 391.113 440.712C390.858 437.738 391.414 434.751 392.726 432.052C393.578 430.465 395.029 429.26 396.775 428.69C400.813 427.374 403.459 429.42 404.05 433.14C405.034 439.468 404.468 445.928 405.761 452.28C406.956 458.22 408.766 464.028 411.164 469.614C413.343 474.662 415.989 479.543 417.663 484.77C418.924 489.079 419.825 493.48 420.359 497.929C422.008 509.88 423.301 522.177 419.571 533.553Z" fill="#0B6BB1"/>
<path d="M699.918 823.094C698.361 825.227 696.357 827.016 694.039 828.344C691.72 829.671 689.139 830.508 686.464 830.798C681.122 831.444 675.571 830.14 670.389 831.563C669.587 831.691 668.829 832.011 668.185 832.493C667.541 832.976 667.029 833.605 666.696 834.326C666.568 835.299 666.49 836.277 666.463 837.257C665.859 840.451 661.539 841.169 658.179 841.145L644.319 841.061C641.439 841.061 638.251 840.906 636.183 838.968C635.2 837.91 634.645 836.54 634.622 835.115C634.6 833.689 635.111 832.304 636.06 831.216C636.49 830.721 637.017 830.314 637.611 830.02C636.745 829.742 635.976 829.235 635.389 828.557C634.803 827.879 634.421 827.056 634.287 826.18C634.035 824.421 634.123 822.632 634.546 820.905C634.546 815.904 635.777 807.53 639.395 803.619C643.839 798.75 651.544 792.458 658.253 791.154C660.518 790.732 662.853 790.831 665.072 791.444C667.291 792.057 669.331 793.166 671.029 794.683C674.205 797.554 676.519 802.052 680.876 802.554C683.252 802.841 685.541 801.753 687.892 801.358C690.564 801.024 693.277 801.501 695.659 802.723C698.041 803.946 699.976 805.855 701.198 808.188C701.795 809.371 702.209 810.633 702.429 811.933C703.079 815.828 702.182 819.818 699.918 823.094Z" fill="#A26565"/>
<path opacity="0.1" d="M699.918 823.094C698.361 825.227 696.357 827.016 694.039 828.344C691.72 829.671 689.139 830.508 686.464 830.798C681.122 831.444 675.571 830.14 670.389 831.563C669.587 831.692 668.829 832.011 668.185 832.493C667.541 832.976 667.029 833.605 666.696 834.326C666.568 835.299 666.49 836.277 666.462 837.257C665.859 840.451 661.539 841.169 658.179 841.145L644.319 841.061C641.439 841.061 638.251 840.906 636.183 838.968C635.199 837.91 634.645 836.54 634.622 835.115C634.6 833.689 635.11 832.304 636.06 831.216C644.06 830.893 651.926 831.216 659.902 829.613C663.139 828.979 666.327 828.142 669.601 827.699C676.691 826.718 684.236 827.556 690.748 824.637C696.176 822.244 700.066 817.376 702.367 811.945C703.033 815.828 702.157 819.813 699.918 823.094Z" fill="black"/>
<path d="M663.349 804.181C658.425 807.889 652.652 810.784 646.448 811.095C640.245 811.406 633.66 808.703 630.619 803.463C626.176 795.771 630.115 785.077 624.674 778.019C622.975 775.806 620.526 774.239 618.729 772.098C616.932 769.956 615.898 766.738 617.498 764.466C615.566 765.183 613.522 763.365 612.956 761.427C612.39 759.489 612.747 757.408 612.402 755.446C611.504 750.242 606.248 746.905 603.724 742.287C601.201 737.669 601.546 731.676 601.263 726.209C600.633 712.89 595.532 700.138 586.738 689.903C585.064 687.965 582.922 685.992 580.313 686.087C580.768 681.709 577.765 677.522 573.875 675.321C569.986 673.12 565.358 672.378 560.853 671.948C515.396 667.593 468.031 684.018 424.63 670.201C412.555 666.361 400.911 659.937 393.526 649.865C390.649 646.031 388.591 641.677 387.473 637.059C386.354 632.44 386.199 627.651 387.015 622.973V622.806C388.725 614.312 393.341 612.219 400.985 608.343C409.809 603.809 419.032 600.05 428.545 597.11C447.008 591.5 466.887 589.478 485.941 593.593C494.84 595.531 503.419 598.737 512.331 600.615C515.839 601.357 519.372 601.883 522.929 602.326C528.456 602.996 534.007 603.438 539.571 604.06C557.36 606.051 574.881 609.881 591.834 615.485C598.148 617.566 604.463 619.947 609.891 623.715C614.185 626.745 617.815 630.576 620.571 634.983C623.326 639.39 625.152 644.287 625.942 649.386C626.459 652.903 626.471 656.564 627.259 659.973C628.005 662.838 628.993 665.639 630.213 668.347C640.73 693.619 649.325 719.608 655.926 746.103C656.301 748.071 656.994 749.969 657.982 751.725C659.557 754.202 662.265 755.864 663.853 758.341C667.546 764.178 663.989 772.325 667.263 778.402C668.395 780.507 670.278 782.17 671.411 784.275C675.103 791.178 669.651 799.432 663.349 804.181Z" fill="#454B69"/>
<path opacity="0.1" d="M600.45 666.732C602.2 665.386 603.709 663.77 604.918 661.947C606.131 660.115 606.613 657.915 606.272 655.762C606.752 658.486 606.569 661.281 605.737 663.923C604.906 666.565 603.449 668.982 601.484 670.979C598.394 674.053 592.597 677.067 588.08 676.015C588.72 672.498 597.582 669.1 600.45 666.732Z" fill="black"/>
<path opacity="0.1" d="M523.544 607.111C523.173 608.393 522.478 609.565 521.524 610.522C520.57 611.478 519.386 612.189 518.079 612.59C515.454 613.369 512.706 613.681 509.968 613.511H507.506C475.207 612.817 442.564 605.855 411.017 612.494C407.215 613.256 403.484 614.324 399.865 615.688C395.253 617.454 390.936 619.873 387.051 622.865V622.698C388.762 614.205 393.378 612.111 401.022 608.235C409.838 603.74 419.049 600.017 428.544 597.11C447.008 591.5 466.887 589.478 485.941 593.593C494.84 595.531 503.419 598.737 512.331 600.615C515.839 601.357 519.372 601.883 522.929 602.326C523.619 603.826 523.833 605.492 523.544 607.111Z" fill="black"/>
<path d="M523.544 605.4C523.175 606.685 522.482 607.86 521.528 608.819C520.574 609.778 519.388 610.49 518.079 610.891C515.455 611.672 512.706 611.981 509.968 611.8H507.506C475.207 611.106 442.564 604.144 411.017 610.783C407.216 611.546 403.486 612.611 399.865 613.965C395.036 615.837 390.531 618.419 386.51 621.621C385.566 619.101 384.626 616.577 383.691 614.049C382.558 611.034 386.153 610.365 386.842 607.661C387.297 605.831 386.522 603.749 386.128 601.799C386.027 601.322 385.961 600.838 385.931 600.352C385.71 596.033 387.297 593.545 390.941 591.213C401.748 584.274 414.931 579.513 427.264 575.936C433.821 573.922 440.594 572.645 447.451 572.132C457.15 571.582 466.837 573.329 476.278 575.542C487.885 578.329 499.37 582.013 509.66 587.911C514.706 590.77 519.63 594.359 522.35 599.455C523.436 601.246 523.857 603.344 523.544 605.4Z" fill="#A26565"/>
<path opacity="0.1" d="M419.571 533.553C415.879 544.93 405.798 555.182 393.526 555.672C392.633 555.774 391.729 555.615 390.929 555.217C389.39 554.284 389.353 552.095 389.981 550.432C390.609 548.77 391.704 547.274 391.876 545.528C391.913 545.171 391.888 544.812 391.803 544.463C398.314 535.539 404.628 526.519 407.127 515.957C407.633 514.138 407.787 512.244 407.583 510.37C407.25 508.217 406.13 506.267 405.515 504.185C404.431 500.501 404.936 496.601 405.244 492.785C406.526 475.982 403.638 459.125 396.825 443.631C395.163 439.899 393.267 436.119 392.689 432.135C393.541 430.548 394.992 429.344 396.738 428.774C400.776 427.458 403.422 429.504 404.013 433.224C404.998 439.552 404.431 446.012 405.724 452.364C406.919 458.304 408.729 464.112 411.128 469.698C413.306 474.746 415.953 479.626 417.627 484.854C418.887 489.163 419.788 493.563 420.322 498.013C422.009 509.88 423.301 522.177 419.571 533.553Z" fill="black"/>
<path opacity="0.1" d="M523.544 605.4C523.175 606.685 522.482 607.86 521.528 608.819C520.574 609.778 519.388 610.49 518.079 610.891C515.455 611.672 512.706 611.981 509.968 611.8H507.506C496.992 605.014 484.352 602.048 471.81 603.426C467.797 603.893 463.785 604.802 459.772 604.443C451.66 603.725 445.088 598.055 437.862 594.431C429.64 590.485 420.393 589.017 411.307 590.215C402.221 591.413 393.71 595.222 386.867 601.153L386.165 601.752C386.064 601.274 385.998 600.791 385.968 600.304C385.746 595.986 387.334 593.497 390.978 591.165C401.785 584.227 414.968 579.465 427.301 575.889C433.858 573.874 440.631 572.598 447.488 572.085C457.187 571.534 466.874 573.281 476.315 575.494C487.922 578.281 499.407 581.966 509.697 587.863C514.706 590.77 519.63 594.359 522.35 599.455C523.436 601.246 523.857 603.344 523.544 605.4Z" fill="black"/>
<path d="M551.153 474.363L550.981 474.794C548.224 481.744 543.152 487.617 539.903 494.388C535.804 502.965 534.795 512.583 533.884 522.01C533.096 530.084 532.321 538.207 532.948 546.305C534.524 566.259 544.556 585.184 547.239 604.754C547.9 609.274 548.069 613.849 547.744 618.403C547.522 621.286 546.98 624.385 545.011 626.514C543.042 628.643 539.213 629.481 537.096 627.435C538.044 625.677 539.004 623.93 539.964 622.172C534.339 617.925 525.871 620.975 519.298 618.32C516.405 617.123 514.091 614.97 511.666 613.044C506.132 608.671 499.754 605.417 492.908 603.474C486.061 601.531 478.884 600.937 471.798 601.728C467.785 602.206 463.772 603.115 459.76 602.756C451.648 602.027 445.075 596.368 437.85 592.744C429.629 588.8 420.383 587.332 411.297 588.527C402.212 589.723 393.701 593.528 386.854 599.455C385.131 601.01 382.817 602.828 380.7 601.847C379.882 601.36 379.221 600.66 378.792 599.826C370.73 586.44 376.663 569.178 385.279 556.139C393.895 543.099 405.305 531.077 408.85 515.968C409.362 514.151 409.517 512.255 409.306 510.382C408.973 508.229 407.853 506.279 407.238 504.197C406.155 500.513 406.659 496.613 406.967 492.797C408.258 475.992 405.38 459.131 398.572 443.631C396.603 439.169 394.264 434.647 394.264 429.803C394.264 422.171 399.889 415.842 404.542 409.706C409.897 402.648 414.389 394.836 421.171 389.034C427.597 383.52 436.902 380.146 444.854 382.945C458.365 379.758 472.272 378.441 486.162 379.034C490.963 379.249 495.923 379.74 500.133 382C504.638 384.393 507.875 388.652 512.306 391.2C515.544 393.078 519.273 393.963 522.793 395.279C532.514 398.968 540.538 405.943 545.393 414.921C550.316 424.192 551.547 434.851 552.63 445.234C553.664 455.008 554.649 465.164 551.153 474.363Z" fill="#0B6BB1"/>
<path opacity="0.1" d="M532.948 546.305C534.524 566.259 544.556 585.184 547.239 604.754C541.872 600.34 534.401 595.902 533.404 590.77C532.296 585.219 528.751 577.946 528.16 572.336C527.569 566.725 531.619 559.871 527.373 556.019C525.305 554.141 530.807 554.667 528.788 552.741C524.246 548.447 523.126 541.831 522.843 535.695C522.363 524.833 523.778 513.851 521.723 503.169C520.492 496.577 517.919 490.297 515.864 483.897C513.476 476.444 511.753 468.812 510.029 461.168C508.333 454.372 507.1 447.475 506.337 440.521C505.807 434.54 506.054 428.2 508.798 422.745C511.543 417.29 517.095 412.864 523.323 412.947C544.149 413.211 540.555 440.653 545.134 453.333C546.968 458.381 549.442 463.262 550.439 468.525C550.803 470.589 551.001 472.676 551.03 474.77C548.273 481.72 543.202 487.593 539.952 494.364C535.853 502.941 534.844 512.559 533.933 521.986C533.096 530.084 532.321 538.207 532.948 546.305Z" fill="black"/>
<path d="M546.488 453.022C548.322 458.07 550.796 462.951 551.793 468.214C553.455 477.031 550.882 486.397 553.677 494.938C554.404 496.762 555.012 498.627 555.498 500.525C555.978 503.24 555.424 506.016 555.424 508.779C555.424 513.229 556.865 517.536 558.145 521.806C562.474 536.319 565.339 551.207 566.699 566.259C566.903 570.304 567.559 574.315 568.656 578.221C569.173 579.545 569.617 580.895 569.986 582.265C570.316 584.093 570.395 585.955 570.22 587.803C569.887 593.665 569.21 599.55 569.887 605.388C570.564 611.226 572.755 617.147 577.273 621.059C573.235 621.908 568.964 622.758 565.025 621.502C559.486 619.743 556.163 614.324 553.344 609.396C549.775 603.103 536.21 597.433 534.807 590.363C533.712 584.825 530.167 577.551 529.576 571.929C528.985 566.307 533.022 559.476 528.776 555.624C526.72 553.746 532.222 554.26 530.191 552.346C525.662 548.052 524.541 541.437 524.258 535.288C523.778 524.438 525.182 513.456 523.138 502.774C521.907 496.182 519.335 489.902 517.279 483.49C514.891 476.05 513.168 468.418 511.445 460.762C509.744 453.966 508.51 447.069 507.752 440.114C507.223 434.133 507.457 427.781 510.214 422.326C512.971 416.871 518.522 412.457 524.738 412.529C545.479 412.888 541.909 440.342 546.488 453.022Z" fill="#0B6BB1"/>
<path opacity="0.1" d="M487.135 457.699C489.08 459.912 491.578 462.341 494.52 461.91C494.297 462.254 493.944 462.499 493.536 462.593C493.129 462.687 492.7 462.622 492.341 462.412C491.635 461.958 491.069 461.325 490.704 460.582L486.495 453.68C485.941 452.783 482.125 447.555 481.19 450.569C480.82 451.849 486.187 456.623 487.135 457.699Z" fill="black"/>
<path opacity="0.1" d="M484.87 474.913C484.749 472.658 483.771 470.526 482.125 468.932C480.645 467.628 478.919 466.616 477.041 465.953C472.426 464.111 466.96 462.628 461.951 462.867C463.772 465.451 469.619 466.994 472.549 468.453C476.701 470.535 480.808 472.688 484.87 474.913Z" fill="black"/>
<path opacity="0.1" d="M497.979 523.912C497.13 530.036 491.972 534.678 486.753 538.267C481.534 541.855 475.675 544.942 472.266 550.133C469.902 553.722 468.844 557.885 466.837 561.629C464.622 565.756 461.311 569.226 458.664 573.101C456.018 576.977 453.95 581.607 454.762 586.2C454.774 586.412 454.83 586.618 454.928 586.808C455.025 586.997 455.162 587.165 455.329 587.301C455.582 587.405 455.859 587.444 456.133 587.415C456.406 587.386 456.668 587.289 456.892 587.133C462.259 584.406 464.376 578.174 466.628 572.778C468.993 567.333 471.655 562.014 474.604 556.844C475.934 554.452 477.398 551.844 479.873 550.516C481.567 549.83 483.301 549.243 485.067 548.758C487.572 547.641 489.769 545.965 491.48 543.865C498.199 536.074 501.708 526.139 501.327 515.98C501.253 513.839 501.13 503.528 497.819 506.71C494.508 509.892 498.545 519.749 497.979 523.912Z" fill="black"/>
<path d="M506.09 289.004C516.676 293.49 525.785 303.359 525.452 314.544C525.169 326.291 515.051 337.356 518.535 348.613C520.553 355.145 526.634 359.523 531.447 364.487C549.775 383.34 549.738 416.249 531.348 435.066C524.308 442.244 515.261 447.352 507.814 454.206C481.559 478.251 480.439 519.844 494.495 552.131C483.725 554.395 472.748 555.597 461.729 555.72C456.572 555.72 450.257 554.871 448.387 550.193C446.663 545.875 449.617 540.037 446.22 536.843C444.62 535.348 442.22 535.144 440.066 534.797C426.206 532.62 414.833 521.866 409.638 509.198C404.444 496.529 404.715 482.27 407.693 468.944C409.811 459.314 413.122 448.715 408.21 440.102C402.056 429.264 384.356 424.695 384.627 412.301C384.848 402.145 397.169 397.205 404.161 389.656C417.06 375.756 410.918 354.188 410.894 335.454C410.894 318.97 416.827 301.959 429.455 290.978C448.239 274.505 484.415 279.853 506.09 289.004Z" fill="#A26565"/>
<g opacity="0.1">
<path d="M410.229 427.817C404.825 418.343 390.633 413.653 387.334 404.334C385.684 406.509 384.756 409.122 384.676 411.823C384.405 424.216 402.08 428.786 408.259 439.636C410.289 443.477 411.143 447.802 410.721 452.101C412.666 443.775 414.377 435.09 410.229 427.817Z" fill="black"/>
<path d="M519.95 333.277C522.166 326.997 525.378 320.657 525.538 314.137C525.561 313.431 525.54 312.724 525.477 312.02C523.003 319.221 519.212 326.207 519.95 333.277Z" fill="black"/>
<path d="M412.346 366.736C416.58 353.733 412.924 337.608 412.912 323.181C412.912 321.434 412.986 319.676 413.121 317.929C411.663 323.505 410.927 329.235 410.93 334.988C410.955 345.288 412.814 356.461 412.346 366.736Z" fill="black"/>
<path d="M533.404 422.828C526.363 430.006 517.316 435.114 509.869 441.968C496.576 454.134 489.744 470.798 488.033 488.467C491.209 475.308 497.622 463.19 507.9 453.775C515.285 446.957 524.394 441.873 531.434 434.635C539.809 425.765 544.673 414.294 545.159 402.265C543.033 409.952 538.996 417.013 533.404 422.828Z" fill="black"/>
<path d="M463.785 543.446C458.627 543.446 452.313 542.585 450.442 537.908C448.719 533.601 451.673 527.764 448.276 524.558C446.676 523.062 444.263 522.859 442.121 522.512C428.274 520.347 416.9 509.58 411.706 496.924C407.878 487.569 407.053 477.366 408.013 467.293C407.915 467.688 407.829 468.083 407.743 468.489C404.813 481.816 404.505 496.087 409.687 508.755C414.869 521.423 426.255 532.178 440.103 534.343C442.294 534.69 444.706 534.905 446.257 536.388C449.691 539.594 446.7 545.432 448.423 549.739C450.294 554.416 456.609 555.337 461.766 555.277C472.785 555.154 483.762 553.952 494.532 551.688C493.013 548.199 491.686 544.633 490.557 541.006C481.717 542.533 472.763 543.349 463.785 543.446Z" fill="black"/>
</g>
<path opacity="0.1" d="M504.096 491.278C507.137 493.503 510.435 485.021 508.552 482.904C508.048 483.454 503.629 490.967 504.096 491.278Z" fill="black"/>
<path opacity="0.1" d="M517.058 644.805C520.639 643.608 524.443 642.412 526.782 639.541C528.714 637.232 530.302 628.069 526.215 632.459C522.744 636.227 521.107 641.192 517.058 644.805Z" fill="black"/>
<path opacity="0.1" d="M553.529 635.199C553.098 638.022 552.298 640.953 550.242 642.986C549.861 643.369 549.011 643.608 548.901 643.094C551.197 641.906 553.33 640.443 555.252 638.74C559.412 634.732 559.979 624.863 553.64 622.243C553.578 626.574 554.206 630.797 553.529 635.199Z" fill="black"/>
<path d="M597.311 617.411C597.311 617.411 562.379 604.072 549.75 605.448C537.121 606.824 564.053 626.167 564.053 626.167L580.153 636.718C580.153 636.718 590 633.129 590.652 632.854C591.305 632.579 597.311 617.411 597.311 617.411Z" fill="#454B69"/>
<path d="M356.956 474.315C356.956 474.315 383.199 459.529 417.836 477.904C452.473 496.278 458.246 604.407 458.246 604.407C458.246 604.407 444.078 714.57 498.705 690.059C498.705 690.059 598.407 659.973 608.389 666.6C608.389 666.6 617.842 666.6 598.948 670.679C580.054 674.759 507.063 697.236 507.063 697.236C507.063 697.236 483.467 705.251 473.472 697.236C463.477 689.221 435.154 698.265 431.474 643.166C429.038 608.444 424.658 573.877 418.353 539.618L408.616 511.566L356.956 474.315Z" fill="#565661"/>
<path d="M353.805 644.685C353.805 644.685 365.351 532.979 346.42 492.678C329.951 457.556 393.637 473.98 410.254 478.765C412.825 479.512 415.068 481.069 416.63 483.191C426.477 496.649 461.803 550.588 451.39 622.758C451.39 622.758 447.192 687.032 473.435 697.224L392.578 671.912C386.017 669.854 379.358 668.143 372.638 666.66C364.071 664.77 350.112 659.399 353.805 644.685Z" fill="white"/>
<path d="M928.887 853.227H939.387L946.268 716.089L946.735 708.29L937.811 705.239L937.221 713.529L928.887 853.227Z" fill="#565661"/>
<path opacity="0.1" d="M937.221 713.529L946.268 716.089L946.736 708.29L937.812 705.239L937.221 713.529Z" fill="black"/>
<path d="M841.224 800.269C840.966 802.148 840.469 803.988 839.747 805.748C839 808.047 837.398 809.992 835.254 811.203C833.814 811.781 832.27 812.078 830.712 812.076C824.914 812.411 818.785 812.327 813.8 809.456C811.676 808.127 809.729 806.548 808.002 804.755C796.8 793.938 786.617 782.168 777.575 769.585C776.061 767.468 774.497 764.968 775.174 762.408C786.887 759.25 798.01 754.304 808.125 747.754C809.521 746.713 811.085 745.905 812.753 745.361C815.61 744.768 818.55 744.663 821.443 745.05C824.238 745.493 824.361 745.577 825.431 748.639C827.204 753.819 826.909 759.405 828.903 764.585C830.168 767.447 831.71 770.187 833.506 772.767C838.651 781.129 842.602 790.998 841.224 800.269Z" fill="#A26565"/>
<path opacity="0.1" d="M841.224 800.269C840.966 802.148 840.469 803.988 839.747 805.748C839 808.047 837.398 809.992 835.254 811.203C833.814 811.781 832.27 812.078 830.712 812.076C824.914 812.411 818.785 812.327 813.8 809.456C811.676 808.127 809.729 806.548 808.002 804.755C796.8 793.938 786.617 782.168 777.575 769.585C776.061 767.468 774.497 764.968 775.174 762.408C778.996 761.379 782.759 760.157 786.449 758.747L786.634 758.879C790.413 761.499 793.158 765.255 795.829 768.94L804.445 780.723C805.981 783.037 807.795 785.165 809.849 787.063C812.395 789.049 815.206 790.691 818.206 791.943C822.256 793.845 826.305 795.747 830.515 797.279C833.235 798.343 837.839 798.762 841.224 800.269Z" fill="black"/>
<path d="M849.175 672.522C848.327 674.509 847.297 676.419 846.098 678.228C834.658 696.898 825.832 716.969 819.856 737.909C818.157 737.538 817.197 739.787 817.209 741.497C817.221 743.208 817.209 745.361 815.584 745.983C815.104 746.163 814.563 746.163 814.095 746.366C813.061 746.821 812.766 748.101 812.618 749.201L811.165 759.561C810.661 763.15 810.218 767.037 812.027 770.207C813.275 772.092 814.894 773.718 816.791 774.992L840.818 793.415C841.802 794.168 843.021 794.97 844.202 794.551C846.898 793.594 844.51 788.905 846.664 787.003C848.092 785.699 850.357 786.68 852.339 786.524C854.923 786.333 856.881 784.024 857.533 781.596C857.991 779.123 858.037 776.594 857.668 774.107C857.506 772.972 857.641 771.816 858.062 770.746C858.797 769.612 859.807 768.671 861.004 768.006C865.173 765.047 868.532 761.141 870.787 756.628C873.043 752.115 874.125 747.133 873.941 742.12C873.745 740.593 873.803 739.046 874.113 737.538C874.614 736.157 875.369 734.876 876.341 733.758C885.068 722.286 892.342 709.833 899.568 697.404C903.728 690.226 907.962 682.941 909.415 674.854C909.541 674.554 909.593 674.228 909.567 673.904C909.541 673.581 909.439 673.267 909.267 672.989C909.095 672.71 908.858 672.474 908.576 672.3C908.295 672.125 907.975 672.017 907.642 671.983C904.038 670.89 900.361 670.035 896.638 669.423C885.326 667.198 874.408 663.765 863.404 660.464C852.4 657.162 852.486 663.885 849.175 672.522Z" fill="#454B69"/>
<path d="M797.146 882.236L814.477 884.27L894.25 708.29L915.766 706.758L953.567 717.477L960.903 927H978.221L971.402 709.821L1012.87 710.85L1086.87 889.88H1102.61L1024.79 680.644L1021.79 672.582L905.796 668.718L876.883 684.472L876.513 685.381L797.146 882.236Z" fill="#565661"/>
<path opacity="0.1" d="M876.513 685.381C901.439 692.679 927.312 700.646 927.312 700.646C927.312 700.646 950.908 708.648 960.903 700.646C962.163 699.69 963.572 698.935 965.075 698.409C963.779 699.309 962.378 700.06 960.903 700.646L1024.79 680.632L1021.83 672.582L905.833 668.718L876.919 684.472L876.513 685.381Z" fill="black"/>
<path d="M994.494 650.654L947.265 640.45C947.265 640.45 834.417 660.858 826.022 669.017C826.022 669.017 916.295 686.865 926.266 692.942C936.236 699.019 995.552 705.742 994.494 650.654Z" fill="white"/>
<path d="M819.24 814.636C816.397 819.9 809.393 821.383 803.238 821.467C794.694 821.57 786.207 820.096 778.227 817.124C773.673 815.426 769.303 813.237 764.601 811.992C757.597 810.126 749.83 810.282 743.676 806.538C740.412 804.423 737.715 801.581 735.811 798.248C735.454 797.661 735.109 797.051 734.789 796.429C731.847 790.867 730.481 784.395 732.118 778.39C733.755 772.385 739.7 765.769 746.593 765.865C754.779 765.985 764.539 769.753 772.442 771.703C782.289 774.095 792.136 776.859 800.838 781.919C808.125 786.177 814.563 792.29 817.997 799.755C818.657 801.195 819.2 802.683 819.622 804.205C820.692 807.65 820.939 811.49 819.24 814.636Z" fill="#A26565"/>
<path opacity="0.1" d="M819.24 814.636C816.397 819.9 809.393 821.383 803.239 821.467C794.694 821.57 786.207 820.096 778.227 817.124C773.673 815.426 769.303 813.237 764.601 811.992C757.597 810.126 749.831 810.282 743.676 806.538C740.412 804.423 737.715 801.58 735.811 798.248C735.454 797.661 735.109 797.051 734.789 796.429C736.02 796.525 737.152 796.645 737.768 796.704C745.325 797.41 752.538 800.09 759.751 802.111C769.765 804.923 780.105 806.49 790.524 806.777C797.909 806.98 805.614 806.454 812.064 802.949C813.99 801.768 815.988 800.701 818.046 799.755C818.706 801.195 819.25 802.683 819.671 804.205C820.693 807.65 820.939 811.49 819.24 814.636Z" fill="black"/>
<path d="M872.131 587.181C856.13 584.633 839.833 584.011 823.61 583.389L803.768 582.624C802.357 582.465 800.927 582.633 799.595 583.114C798.448 583.831 797.357 584.631 796.333 585.507C794.339 586.822 791.791 586.966 789.391 587.098C772.364 588.009 755.43 590.144 738.728 593.486C730.112 595.196 721.163 597.433 714.689 603.211C707.845 609.324 704.842 618.643 704.608 627.662C704.374 636.682 706.811 645.546 709.384 654.207C712.659 664.633 714.468 675.441 714.763 686.338C714.647 689.361 714.766 692.389 715.12 695.394C715.693 698.263 716.563 701.069 717.717 703.768L726.776 727.274C727.576 729.332 728.364 731.377 729.238 733.387C730.112 735.397 730.949 736.976 731.7 738.866C732.807 741.45 733.681 744.129 734.555 746.797L740.587 765.207L741.374 767.6C743.553 774.227 745.781 780.974 749.892 786.668C754.003 792.362 760.367 796.956 767.518 797.303C769.826 797.219 772.136 797.278 774.436 797.482C776.396 797.947 778.299 798.617 780.11 799.48C785.48 801.648 791.245 802.742 797.06 802.698C802.414 802.698 808.359 801.25 811.264 796.872C812.864 794.479 813.283 791.537 813.726 788.713C814.501 783.043 815.252 777.122 813.27 771.739C812.04 768.521 809.972 765.757 808.544 762.587C806.55 758.269 805.897 753.496 804.605 748.938C801.808 739.128 796.117 730.329 788.234 723.626C785.435 712.853 783.379 701.911 782.08 690.872C781.899 688.428 781.399 686.016 780.59 683.695C779.15 680.106 776.233 677.199 775.015 673.539C773.87 670.141 774.214 666.218 772.134 663.287C789.453 667.916 806.599 666.875 824.582 666.6C830.341 666.618 836.096 666.299 841.815 665.643C844.481 665.168 847.18 664.888 849.889 664.806C855.453 664.806 860.672 667.198 865.78 669.304C880.218 675.285 895.432 679.986 911.114 680.632C927.3 681.29 943.301 677.594 959.118 673.933C966.073 672.318 973.298 670.572 978.812 666.134C984.327 661.696 987.429 653.693 984.031 647.604C981.446 643.022 976.092 640.773 971.095 638.859C957.26 633.548 943.351 628.368 930.02 621.944C909.661 612.303 894.435 590.77 872.131 587.181Z" fill="#454B69"/>
<path d="M843.599 533.063C841.667 537.13 838.417 540.456 836.017 544.284C832.002 550.585 830.677 558.161 832.324 565.398C833.19 568.975 834.888 572.311 837.289 575.151C839.689 577.99 842.728 580.256 846.172 581.774C849.246 582.964 852.479 583.722 855.773 584.023C860.105 584.538 864.721 584.645 868.549 582.612C871.414 580.941 873.765 578.553 875.356 575.697C878.667 570.314 880.55 564.249 882.274 558.208C885.462 547.059 888.182 535.623 887.788 524.055C887.653 520.072 886.84 515.586 883.443 513.289C881.69 512.305 879.745 511.685 877.732 511.471L861.496 508.647C858.358 508.097 852.88 505.86 850.16 508.061C847.44 510.262 847.23 516.77 846.763 519.82C846.024 524.33 845.569 528.912 843.599 533.063Z" fill="#A1616A"/>
<path d="M1040.95 486.792L1036.7 521.387C1035.82 527.558 1035.32 533.773 1035.19 540.001C1035.19 543.47 1035.3 547.322 1032.93 549.918C1031.78 551.099 1030.32 551.955 1028.7 552.394C1023.54 553.949 1017.92 552.562 1012.99 550.42C1010.11 549.224 1007.17 547.49 1005.87 544.702C1005.11 542.77 1004.79 540.7 1004.94 538.637C1004.94 518.002 1006.95 496.482 1018.04 478.897C1018.99 477.171 1020.32 475.675 1021.94 474.518C1025.02 472.604 1029.04 473.143 1032.53 474.183C1034.67 474.817 1040.46 475.523 1041.82 477.377C1043.19 479.232 1041.24 484.411 1040.95 486.792Z" fill="#A1616A"/>
<path d="M928.284 361.688C952.757 361.688 972.596 342.407 972.596 318.623C972.596 294.839 952.757 275.558 928.284 275.558C903.812 275.558 883.972 294.839 883.972 318.623C883.972 342.407 903.812 361.688 928.284 361.688Z" fill="#A1616A"/>
<path d="M916.431 382.802C916.271 386.152 915.333 389.424 913.686 392.372C936.31 389.022 958.876 385.29 981.385 381.175C973.917 377.444 968.271 370.994 965.679 363.231C964.455 359.069 963.785 354.771 963.685 350.443C963.328 343.58 963.463 336.701 964.091 329.856C956.213 330.657 948.754 333.528 941.246 335.993C933.697 338.472 926.017 340.561 918.24 342.249C914.486 343.063 910.707 343.756 906.916 344.402C902.485 345.168 900.356 345.156 903.433 348.936C911.692 359.032 917.588 369.296 916.431 382.802Z" fill="#A1616A"/>
<path d="M930.045 377.048C924.198 377.897 918.068 378.854 913.403 382.371C911.627 383.853 909.938 385.431 908.344 387.096C899.076 395.841 885.991 399.358 874.741 405.531C872.906 406.412 871.28 407.655 869.965 409.179C868.734 410.842 868.106 412.959 866.814 414.61C865.312 416.524 862.937 417.72 861.767 419.838C860.598 421.955 860.857 424.204 860.733 426.453C860.45 431.394 858.53 436.083 857.041 440.808C850.209 463.429 853.951 488.658 843.612 510.023C844.087 511.254 844.814 512.378 845.75 513.328C846.685 514.278 847.808 515.034 849.052 515.55C851.654 516.461 854.37 517.028 857.127 517.237L880.034 520C883.308 520.395 886.779 520.765 889.77 519.438C887.034 526.768 885.099 534.358 883.997 542.083C883.44 546.804 882.577 551.487 881.412 556.103C878.261 566.63 870.334 575.398 860.943 581.391C859.76 581.994 858.762 582.889 858.05 583.987C856.819 586.38 858.641 589.059 859.933 591.404C863.688 598.199 863.171 606.357 863.121 614.061C863.072 621.765 863.872 630.222 869.411 635.749C872.685 639.015 877.166 640.785 881.523 642.472L917.354 656.384C923.267 658.831 929.366 660.831 935.596 662.366C945.037 664.459 954.847 664.375 964.534 663.969C970.935 663.705 977.327 663.307 983.711 662.772C986.251 662.764 988.746 662.126 990.961 660.918C992.868 659.456 994.334 657.522 995.208 655.32C1000.19 644.781 1001.87 632.483 1009.6 623.655C1014.9 617.59 1023.14 612.745 1023.74 604.814C1024.02 600.866 1022.21 597.026 1022.19 593.067C1022.19 588.198 1024.81 583.569 1024.65 578.712C1024.32 570.805 1016.65 564.775 1015.43 556.952C1012.33 537.118 1022.69 517.308 1029.06 498.228C1030.2 494.819 1031.68 491.051 1035.05 489.591C1038.42 488.132 1043.18 488.897 1044.38 485.667C1047.42 477.557 1048.15 468.047 1047.75 459.422C1047.53 454.433 1045.71 449.553 1045.92 444.552C1046.07 441.035 1047.23 437.614 1047.53 434.109C1048 428.81 1046.56 423.546 1045.07 418.426C1044.64 416.598 1044 414.824 1043.15 413.139C1042.24 411.61 1041.17 410.178 1039.95 408.868L1033.96 401.942C1031.15 398.7 1028.18 395.339 1024.11 393.7C1022.79 390.53 1018.58 388.341 1015.57 386.594C1012.53 384.918 1009.39 383.42 1006.16 382.108L972.264 367.562C970.997 366.942 969.64 366.514 968.239 366.294C966.176 366.226 964.125 366.636 962.257 367.49C951.917 371.473 941.123 375.445 930.045 377.048Z" fill="#0B6BB1"/>
<path d="M894.139 326.112C892.835 321.65 889.499 317.798 888.994 313.18C888.539 309.077 890.398 305.105 891.456 301.11C892.515 297.115 892.478 292.234 889.216 289.578C888.674 289.124 887.985 288.717 887.788 288.047C887.394 286.851 888.637 285.762 889.019 284.554C889.721 282.161 886.68 279.518 887.788 277.221C888.416 275.965 889.991 275.522 891.37 275.127C896.638 273.608 901.98 270.235 903.125 265.007C907.248 266.682 911.643 263.536 914.806 260.485C917.969 257.435 921.859 253.954 926.216 254.875L925.244 256.801C931.963 254.43 939.311 254.35 946.083 256.574H944.015C949.955 256.671 955.716 258.566 960.497 261.993C959.967 261.993 959.918 262.758 960.127 263.189C961.851 267.101 966.282 269.17 970.553 270.139C973.125 270.737 975.92 271.168 977.803 272.962C979.686 274.757 979.723 278.501 977.237 279.362C982.307 281.281 987.108 283.813 991.527 286.899C992.758 287.772 994.149 288.956 993.989 290.487C993.813 291.256 993.557 292.006 993.226 292.724C992.98 294.001 993.069 295.318 993.484 296.552L994.851 302.031C996.352 308.12 997.534 315.453 992.967 319.867C994.677 322.971 995.311 326.528 994.777 330.01C994.242 333.492 992.568 336.714 990.001 339.199C990.363 340.267 990.488 341.399 990.368 342.518C990.248 343.637 989.885 344.719 989.304 345.692C988.722 346.665 987.935 347.507 986.995 348.163C986.054 348.819 984.981 349.274 983.846 349.498C985.36 351.795 983.97 355.073 981.582 356.508C979.194 357.944 976.19 357.956 973.408 357.705C970.627 357.453 967.808 356.843 965.026 357.25C960.977 357.86 957.013 360.54 953.111 359.343C951.657 358.739 950.26 358.01 948.939 357.166C946.206 355.743 943.03 355.42 940.002 354.774C934.84 353.696 929.939 351.665 925.564 348.793C922.664 347.098 920.353 344.598 918.93 341.615C916.222 334.964 920.776 326.243 915.988 320.824C913.181 317.666 907.618 317.618 904.479 320.322C902.916 321.674 902.706 324.521 901.082 325.537C898.815 326.095 896.47 326.289 894.139 326.112Z" fill="#464353"/>
<path opacity="0.1" d="M833.925 669.124C832.175 667.779 830.665 666.162 829.457 664.339C828.244 662.508 827.762 660.308 828.103 658.155C827.623 660.878 827.806 663.673 828.637 666.316C829.469 668.958 830.925 671.374 832.891 673.371C835.98 676.445 841.778 679.46 846.295 678.407C845.655 674.89 836.793 671.493 833.925 669.124Z" fill="black"/>
<path d="M1077.42 476.708C1077.42 476.708 1051.18 461.922 1016.54 480.296C981.902 498.671 976.129 606.8 976.129 606.8C976.129 606.8 990.296 716.962 935.67 692.451C935.67 692.451 835.968 662.366 825.985 668.993C825.985 668.993 816.532 668.993 835.426 673.072C854.32 677.151 927.312 699.629 927.312 699.629C927.312 699.629 950.908 707.644 960.903 699.629C970.898 691.614 999.22 700.658 1002.9 645.558C1005.34 610.836 1009.72 576.269 1016.02 542.011L1025.76 513.959L1077.42 476.708Z" fill="#565661"/>
<path d="M1080.57 647.077C1080.57 647.077 1069.02 535.372 1087.96 495.07C1104.42 459.948 1040.74 476.373 1024.12 481.158C1021.55 481.905 1019.31 483.462 1017.75 485.584C1007.9 499.042 972.572 552.98 982.985 625.15C982.985 625.15 987.182 689.425 960.94 699.617L1041.8 674.304C1048.36 672.247 1055.02 670.536 1061.74 669.053C1070.3 667.163 1084.26 661.791 1080.57 647.077Z" fill="white"/>
<path opacity="0.1" d="M1292.54 864.293C1358.78 864.293 1412.48 855.911 1412.48 845.571C1412.48 835.232 1358.78 826.85 1292.54 826.85C1226.3 826.85 1172.6 835.232 1172.6 845.571C1172.6 855.911 1226.3 864.293 1292.54 864.293Z" fill="#EB5D1E"/>
<path d="M1296.39 486.924H1288.68V655.798H1296.39V486.924Z" fill="#535461"/>
<path d="M1344.9 655.284L1344.42 662.892L1343.73 673.658L1343.45 678.132L1342.77 688.898L1342.48 693.372L1341.79 704.139L1334.01 826.24C1333.65 831.481 1331.26 836.394 1327.31 839.983C1323.37 843.573 1318.17 845.571 1312.76 845.571H1272.3C1266.89 845.569 1261.68 843.561 1257.74 839.955C1253.8 836.35 1251.42 831.42 1251.08 826.168L1243.28 704.055L1242.6 693.289L1242.32 688.815L1241.62 678.048L1241.34 673.574L1240.66 662.808L1240.17 655.2C1240.08 653.742 1240.3 652.282 1240.82 650.909C1241.33 649.537 1242.13 648.28 1243.15 647.216C1244.18 646.151 1245.43 645.302 1246.8 644.719C1248.18 644.136 1249.67 643.831 1251.17 643.824H1333.91C1335.42 643.832 1336.91 644.14 1338.29 644.729C1339.68 645.318 1340.92 646.176 1341.95 647.249C1342.98 648.322 1343.77 649.588 1344.28 650.97C1344.79 652.352 1345 653.82 1344.9 655.284Z" fill="#565661"/>
<path d="M1344.42 662.892L1343.73 673.622H1241.35L1240.66 662.892H1344.42Z" fill="#9D9CB5"/>
<path d="M1343.45 678.108L1342.77 688.851H1242.32L1241.63 678.108H1343.45Z" fill="#9D9CB5"/>
<path d="M1342.48 693.324L1341.79 704.055H1243.29L1242.6 693.324H1342.48Z" fill="#9D9CB5"/>
<path d="M1228.87 550.217C1273.82 581.822 1292.54 631.251 1292.54 631.251C1292.54 631.251 1238.38 629.445 1193.42 597.84C1148.45 566.235 1129.76 516.818 1129.76 516.818C1129.76 516.818 1183.93 518.624 1228.87 550.217Z" fill="#0B6BB1"/>
<path d="M1129.76 516.818C1129.76 516.818 1185.97 547.143 1204.02 572.252C1222.06 597.361 1292.54 631.251 1292.54 631.251" stroke="#535461" stroke-width="2" stroke-miterlimit="10"/>
<path d="M1257.88 486.553C1282.35 503.743 1292.54 530.658 1292.54 530.658C1292.54 530.658 1263 529.666 1238.59 512.475C1214.18 495.285 1204 468.37 1204 468.37C1204 468.37 1233.42 469.351 1257.88 486.553Z" fill="#0B6BB1"/>
<path d="M1204 468.37C1204 468.37 1234.6 484.878 1244.41 498.539C1254.22 512.2 1292.6 530.658 1292.6 530.658" stroke="#535461" stroke-width="2" stroke-miterlimit="10"/>
<path d="M1328.09 529.283C1299.99 559.297 1294.04 598.522 1294.04 598.522C1294.04 598.522 1333.66 589.071 1361.74 559.045C1389.82 529.02 1395.79 489.807 1395.79 489.807C1395.79 489.807 1356.19 499.269 1328.09 529.283Z" fill="#0B6BB1"/>
<path d="M1395.81 489.818C1395.81 489.818 1359.21 520.586 1349.9 541.784C1340.59 562.981 1294.04 598.522 1294.04 598.522" stroke="#0B6BB1" stroke-width="2" stroke-miterlimit="10"/>
<path d="M759.579 457.029V459.757H676.359V457.544C678.641 456.712 680.801 455.594 682.784 454.218C686.318 451.759 689.198 448.516 691.184 444.759C693.171 441.002 694.207 436.838 694.207 432.614C694.208 430.407 693.923 428.208 693.357 426.07C692.351 422.223 690.471 418.643 687.855 415.594C685.24 412.545 681.955 410.104 678.242 408.45H759.013C755.3 410.104 752.015 412.545 749.4 415.594C746.784 418.643 744.904 422.223 743.898 426.07C743.336 428.209 743.055 430.407 743.061 432.614C743.058 436.837 744.092 441 746.076 444.758C748.06 448.515 750.938 451.758 754.471 454.218C756.068 455.326 757.78 456.268 759.579 457.029Z" fill="#DFE6F5"/>
<path opacity="0.1" d="M759.013 408.45C755.3 410.104 752.015 412.545 749.4 415.594C746.784 418.643 744.904 422.223 743.898 426.07H693.358C692.351 422.223 690.471 418.643 687.856 415.594C685.24 412.545 681.955 410.104 678.242 408.45H759.013Z" fill="black"/>
<path d="M581.076 394.513V409.873C581.076 418.343 587.452 425.221 595.33 425.221H840.165C848.043 425.221 854.431 418.343 854.431 409.873V394.513H581.076Z" fill="#DFE6F5"/>
<path opacity="0.1" d="M759.579 457.029V459.757H676.359V457.544C678.641 456.712 680.801 455.594 682.784 454.218H754.471C756.068 455.326 757.78 456.268 759.579 457.029Z" fill="black"/>
<path d="M782.904 455.067H653.034C650.729 455.067 648.861 456.88 648.861 459.117C648.861 461.353 650.729 463.166 653.034 463.166H782.904C785.209 463.166 787.077 461.353 787.077 459.117C787.077 456.88 785.209 455.067 782.904 455.067Z" fill="#DFE6F5"/>
<path d="M854.431 226.285C854.431 224.464 854.062 222.662 853.345 220.981C852.628 219.299 851.577 217.772 850.252 216.485C848.927 215.199 847.354 214.178 845.624 213.483C843.893 212.788 842.038 212.43 840.165 212.432H595.33C593.457 212.43 591.603 212.788 589.873 213.483C588.143 214.179 586.571 215.199 585.247 216.486C583.923 217.772 582.873 219.3 582.158 220.982C581.442 222.663 581.074 224.465 581.076 226.285V397.504H854.431V226.285Z" fill="#474157"/>
<path d="M846.972 232.469V379.608C846.974 380.504 846.793 381.392 846.442 382.221C846.09 383.05 845.573 383.803 844.922 384.437C844.27 385.072 843.496 385.575 842.644 385.918C841.792 386.262 840.878 386.439 839.956 386.439H595.551C594.629 386.439 593.716 386.262 592.864 385.918C592.011 385.575 591.238 385.072 590.586 384.437C589.934 383.803 589.418 383.05 589.066 382.221C588.714 381.392 588.534 380.504 588.535 379.608V232.469C588.529 231.272 588.852 230.095 589.471 229.06C590.087 228.023 590.973 227.162 592.041 226.563C593.108 225.965 594.319 225.65 595.551 225.651H839.956C841.817 225.651 843.601 226.369 844.917 227.648C846.233 228.926 846.972 230.661 846.972 232.469Z" fill="#454B69"/>
<path d="M717.753 222.229C719.569 222.229 721.04 220.799 721.04 219.035C721.04 217.271 719.569 215.841 717.753 215.841C715.938 215.841 714.467 217.271 714.467 219.035C714.467 220.799 715.938 222.229 717.753 222.229Z" fill="white"/>
<path d="M717.754 418.39C722.234 418.39 725.865 414.861 725.865 410.507C725.865 406.153 722.234 402.624 717.754 402.624C713.274 402.624 709.642 406.153 709.642 410.507C709.642 414.861 713.274 418.39 717.754 418.39Z" fill="white"/>
<path d="M846.972 232.469H588.56C588.56 230.661 589.299 228.926 590.615 227.648C591.931 226.369 593.715 225.651 595.576 225.651H839.956C841.817 225.651 843.601 226.369 844.917 227.648C846.233 228.926 846.972 230.661 846.972 232.469Z" fill="#C8CAD7"/>
<path d="M595.551 230.771C596.523 230.771 597.311 230.005 597.311 229.06C597.311 228.115 596.523 227.349 595.551 227.349C594.579 227.349 593.791 228.115 593.791 229.06C593.791 230.005 594.579 230.771 595.551 230.771Z" fill="#EDEDF4"/>
<path d="M600.819 230.771C601.791 230.771 602.579 230.005 602.579 229.06C602.579 228.115 601.791 227.349 600.819 227.349C599.847 227.349 599.059 228.115 599.059 229.06C599.059 230.005 599.847 230.771 600.819 230.771Z" fill="#EDEDF4"/>
<path d="M606.088 230.771C607.06 230.771 607.848 230.005 607.848 229.06C607.848 228.115 607.06 227.349 606.088 227.349C605.115 227.349 604.327 228.115 604.327 229.06C604.327 230.005 605.115 230.771 606.088 230.771Z" fill="#EDEDF4"/>
</g>
<defs>
<linearGradient id="paint0_linear_7_107" x1="549.676" y1="603.534" x2="552.532" y2="603.534" gradientUnits="userSpaceOnUse">
<stop stop-color="#808080" stop-opacity="0.25"/>
<stop offset="0.54" stop-color="#808080" stop-opacity="0.12"/>
<stop offset="1" stop-color="#808080" stop-opacity="0.1"/>
</linearGradient>
<clipPath id="clip0_7_107">
<rect width="1391" height="883" fill="white" transform="translate(74 44)"/>
</clipPath>
</defs>
</svg>
